<svg width="36" height="16" viewBox="0 0 36 16" fill="none" xmlns="http://www.w3.org/2000/svg">
<rect width="35.66" height="16" rx="4" fill="#2B579A"/>
<path d="M8.57227 11H7.06476V9.97247H8.51696C8.89106 9.97247 9.20489 9.90624 9.45842 9.77377C9.71196 9.6413 9.9029 9.43568 10.0312 9.1569C10.1596 8.87813 10.2237 8.52135 10.2237 8.08656C10.2237 7.65276 10.1592 7.29738 10.03 7.0204C9.90088 6.74343 9.71053 6.53865 9.45897 6.40608C9.20741 6.2735 8.89575 6.20721 8.52398 6.20721H7.03773V5.17969H8.59375C9.17833 5.17969 9.68059 5.29592 10.1005 5.5284C10.5204 5.76087 10.8438 6.09426 11.0706 6.52855C11.2974 6.96285 11.4108 7.48219 11.4108 8.08656C11.4108 8.69193 11.2974 9.21236 11.0707 9.64785C10.8441 10.0833 10.5188 10.4176 10.0948 10.6505C9.67094 10.8835 9.16342 11 8.57227 11ZM7.71955 5.17969V11H6.52592V5.17969H7.71955ZM14.8609 11.0781C14.3467 11.0781 13.8843 10.9608 13.4739 10.7263C13.0635 10.4917 12.7393 10.1519 12.5012 9.70664C12.2632 9.26143 12.1442 8.7238 12.1442 8.09375C12.1442 7.45969 12.2632 6.9197 12.5012 6.47379C12.7393 6.02788 13.0635 5.68769 13.4739 5.45324C13.8843 5.21879 14.3467 5.10156 14.8609 5.10156C15.3752 5.10156 15.8369 5.21879 16.246 5.45324C16.6551 5.68769 16.9788 6.02788 17.2169 6.47379C17.455 6.9197 17.5741 7.45969 17.5741 8.09375C17.5741 8.72521 17.455 9.26354 17.2169 9.70875C16.9788 10.154 16.6551 10.4935 16.246 10.7273C15.8369 10.9612 15.3752 11.0781 14.8609 11.0781ZM14.8609 10.0193C15.1623 10.0193 15.4255 9.94552 15.6506 9.79787C15.8757 9.65021 16.0509 9.43294 16.1762 9.14604C16.3015 8.85914 16.3641 8.50838 16.3641 8.09375C16.3641 7.67532 16.3015 7.3223 16.1762 7.0347C16.0509 6.7471 15.8757 6.52947 15.6506 6.38182C15.4255 6.23417 15.1623 6.16034 14.8609 6.16034C14.5598 6.16034 14.2964 6.23447 14.0707 6.38272C13.845 6.53097 13.6691 6.7489 13.5431 7.0365C13.4172 7.3241 13.3542 7.67652 13.3542 8.09375C13.3542 8.50838 13.4172 8.85884 13.5431 9.14514C13.6691 9.43144 13.845 9.64872 14.0707 9.79697C14.2964 9.94522 14.5598 10.0193 14.8609 10.0193ZM21.0105 11.0781C20.4949 11.0781 20.0332 10.9608 19.6256 10.7263C19.218 10.4917 18.8966 10.1519 18.6612 9.70664C18.4259 9.26143 18.3083 8.7238 18.3083 8.09375C18.3083 7.45969 18.427 6.9197 18.6644 6.47379C18.9018 6.02788 19.2247 5.68769 19.633 5.45324C20.0413 5.21879 20.5005 5.10156 21.0105 5.10156C21.3414 5.10156 21.6496 5.1477 21.9352 5.23996C22.2209 5.33223 22.4742 5.46702 22.6952 5.64434C22.9162 5.82166 23.0974 6.03835 23.2388 6.29442C23.3802 6.55049 23.4728 6.84233 23.5164 7.16993H22.3101C22.2825 7.0102 22.232 6.86817 22.1584 6.74385C22.0849 6.61953 21.9924 6.51372 21.8809 6.42643C21.7694 6.33914 21.6422 6.27297 21.4994 6.22792C21.3566 6.18287 21.2021 6.16034 21.0359 6.16034C20.7333 6.16034 20.4678 6.23587 20.2393 6.38694C20.0108 6.538 19.8335 6.75734 19.7074 7.04494C19.5813 7.33254 19.5182 7.68214 19.5182 8.09375C19.5182 8.5126 19.5823 8.86547 19.7104 9.15237C19.8385 9.43927 20.0161 9.65549 20.2432 9.80103C20.4703 9.94658 20.7331 10.0193 21.0316 10.0193C21.1978 10.0193 21.352 9.99652 21.4941 9.95087C21.6363 9.90522 21.7638 9.83905 21.8767 9.75236C21.9896 9.66567 22.0835 9.55986 22.1584 9.43494C22.2334 9.31002 22.2853 9.16829 22.3144 9.00975H23.5206C23.488 9.27991 23.4077 9.5385 23.2796 9.78553C23.1516 10.0326 22.9802 10.2535 22.7655 10.4483C22.5509 10.6431 22.2965 10.7967 22.0024 10.9093C21.7084 11.0218 21.3777 11.0781 21.0105 11.0781ZM23.9416 11L26.3434 7.58155V8.48673L24.1275 5.17969H25.5121L26.1495 6.1567C26.2689 6.3404 26.3668 6.50635 26.4435 6.65455C26.5201 6.80276 26.5902 6.94484 26.6538 7.08081C26.7174 7.21677 26.788 7.35824 26.8657 7.50522H26.5491C26.6296 7.35944 26.702 7.21857 26.7663 7.08261C26.8306 6.94664 26.902 6.80426 26.9805 6.65545C27.059 6.50665 27.158 6.3404 27.2774 6.1567L27.9261 5.17969H29.2764L27.1003 8.42173V7.56054L29.4491 11H28.0367L27.226 9.7808C27.1195 9.61653 27.033 9.47715 26.9666 9.36267C26.9002 9.2482 26.8405 9.13969 26.7873 9.03717C26.7342 8.93464 26.6721 8.81953 26.6013 8.69182H26.7888C26.7206 8.81593 26.6592 8.9296 26.6047 9.03283C26.5503 9.13606 26.4896 9.24551 26.4226 9.36119C26.3556 9.47687 26.2662 9.61674 26.1545 9.7808L25.3212 11H23.9416Z" fill="white"/>
</svg>
