<svg width="27" height="27" viewBox="0 0 27 27" fill="none" xmlns="http://www.w3.org/2000/svg">
<path d="M17.0667 11.9333C16.8667 11.3556 16.5611 10.85 16.15 10.4167C15.7389 9.98333 15.2444 9.66667 14.6667 9.46667V0C17.8444 0.311111 20.55 1.58333 22.7833 3.81667C25.0167 6.05 26.2889 8.75556 26.6 11.9333H17.0667ZM12 26.5333C8.57778 26.2 5.72222 24.7667 3.43333 22.2333C1.14444 19.7 0 16.7111 0 13.2667C0 9.82222 1.14444 6.83333 3.43333 4.3C5.72222 1.76667 8.57778 0.333333 12 0V9.46667C11.2 9.75556 10.5556 10.25 10.0667 10.95C9.57778 11.65 9.33333 12.4222 9.33333 13.2667C9.33333 14.1111 9.57778 14.8722 10.0667 15.55C10.5556 16.2278 11.2 16.7111 12 17V26.5333ZM14.6667 26.5333V17C15.2444 16.8 15.7389 16.4944 16.15 16.0833C16.5611 15.6722 16.8667 15.1778 17.0667 14.6H26.6C26.2889 17.7778 25.0167 20.4833 22.7833 22.7167C20.55 24.95 17.8444 26.2222 14.6667 26.5333Z" fill="#3525CD"/>
</svg>
