<svg width="28" height="16" viewBox="0 0 28 16" fill="none" xmlns="http://www.w3.org/2000/svg">
<rect width="27.66" height="16" rx="4" fill="#3525CD"/>
<path d="M6.52592 11V5.17969H8.79657C9.23844 5.17969 9.6143 5.26378 9.92415 5.43195C10.234 5.60013 10.4704 5.83198 10.6334 6.1275C10.7965 6.42302 10.878 6.76225 10.878 7.14516C10.878 7.52949 10.7954 7.86825 10.6303 8.16146C10.4652 8.45466 10.2255 8.68425 9.91133 8.85021C9.59717 9.01617 9.21633 9.09916 8.76883 9.09916H7.31016V8.13671H8.57968C8.82228 8.13671 9.02256 8.09452 9.18053 8.01015C9.3385 7.92578 9.45593 7.80902 9.53283 7.65988C9.60973 7.51075 9.64818 7.33917 9.64818 7.14516C9.64818 6.94834 9.60973 6.77632 9.53283 6.62908C9.45593 6.48184 9.3382 6.36739 9.17963 6.28572C9.02107 6.20406 8.81989 6.16323 8.57609 6.16323H7.71955V11H6.52592ZM13.7559 11H12.2484V9.97247H13.7006C14.0747 9.97247 14.3885 9.90624 14.642 9.77377C14.8956 9.6413 15.0865 9.43568 15.2148 9.1569C15.3432 8.87813 15.4073 8.52135 15.4073 8.08656C15.4073 7.65276 15.3427 7.29738 15.2136 7.0204C15.0845 6.74343 14.8941 6.53865 14.6426 6.40608C14.391 6.2735 14.0793 6.20721 13.7076 6.20721H12.2213V5.17969H13.7773C14.3619 5.17969 14.8642 5.29592 15.2841 5.5284C15.704 5.76087 16.0274 6.09426 16.2542 6.52855C16.481 6.96285 16.5944 7.48219 16.5944 8.08656C16.5944 8.69193 16.481 9.21236 16.2543 9.64785C16.0276 10.0833 15.7023 10.4176 15.2784 10.6505C14.8545 10.8835 14.347 11 13.7559 11ZM12.9031 5.17969V11H11.7095V5.17969H12.9031ZM17.4869 11V5.17969H21.3165V6.16924H18.6805V7.79437H21.0593V8.76705H18.6805V11H17.4869Z" fill="white"/>
</svg>
