<svg width="14" height="14" viewBox="0 0 14 14" fill="none" xmlns="http://www.w3.org/2000/svg">
<path d="M6.66667 13.3C5.74444 13.3 4.87778 13.125 4.06667 12.775C3.25556 12.425 2.55 11.9472 1.95 11.3417C1.35 10.7361 0.875 10.0278 0.525 9.21667C0.175 8.40556 0 7.54444 0 6.63333C0 4.88889 0.577778 3.38889 1.73333 2.13333C2.88889 0.877778 4.31111 0.166667 6 0V2C4.85556 2.15556 3.90278 2.66944 3.14167 3.54167C2.38056 4.41389 2 5.44444 2 6.63333C2 7.92222 2.45556 9.02222 3.36667 9.93333C4.27778 10.8444 5.37778 11.3 6.66667 11.3C7.4 11.3 8.08611 11.1444 8.725 10.8333C9.36389 10.5222 9.9 10.1 10.3333 9.56667L12.0667 10.5667C11.4667 11.4 10.6944 12.0639 9.75 12.5583C8.80556 13.0528 7.77778 13.3 6.66667 13.3V13.3M12.7667 9.33333L11.0333 8.33333C11.1333 8.06667 11.2083 7.79167 11.2583 7.50833C11.3083 7.225 11.3333 6.93333 11.3333 6.63333C11.3333 5.44444 10.9528 4.41389 10.1917 3.54167C9.43056 2.66944 8.47778 2.15556 7.33333 2V0C9.02222 0.166667 10.4444 0.877778 11.6 2.13333C12.7556 3.38889 13.3333 4.88889 13.3333 6.63333C13.3333 7.12222 13.2889 7.59444 13.2 8.05C13.1111 8.50556 12.9667 8.93333 12.7667 9.33333V9.33333" fill="#464555"/>
</svg>
